<svg width="0" height="0" class="hidden">
  <symbol fill="none" xmlns="http://www.w3.org/2000/svg" viewBox="0 0 17 15" id="up">
    <path d="M9.18545 9.40364C9.18545 7.44 9.79636 5.63636 11.0182 3.99273C12.2545 2.33454 13.8255 1.00363 15.7309 0L16.8 1.35273C15.8255 2.13818 14.9673 3.01091 14.2255 3.97091C13.4982 4.93091 13.1345 5.89091 13.1345 6.85091C13.1345 7.38909 13.2364 7.75273 13.44 7.94182C13.6582 8.13091 13.9345 8.32 14.2691 8.50909C14.6764 8.75636 15.0618 9.11273 15.4255 9.57818C15.7891 10.0291 15.9709 10.6182 15.9709 11.3455C15.9709 12.2036 15.6873 12.9309 15.12 13.5273C14.5527 14.1091 13.8182 14.4 12.9164 14.4C11.9273 14.4 11.0545 13.9855 10.2982 13.1564C9.55636 12.3273 9.18545 11.0764 9.18545 9.40364ZM0 9.40364C0 7.44 0.610909 5.63636 1.83273 3.99273C3.06909 2.33454 4.64 1.00363 6.54545 0L7.61455 1.35273C6.64 2.13818 5.78182 3.01091 5.04 3.97091C4.31273 4.93091 3.94909 5.89091 3.94909 6.85091C3.94909 7.38909 4.05091 7.75273 4.25455 7.94182C4.47273 8.13091 4.74909 8.32 5.08364 8.50909C5.49091 8.75636 5.87636 9.11273 6.24 9.57818C6.60364 10.0291 6.78545 10.6182 6.78545 11.3455C6.78545 12.2036 6.50182 12.9309 5.93455 13.5273C5.36727 14.1091 4.63273 14.4 3.73091 14.4C2.74182 14.4 1.86909 13.9855 1.11273 13.1564C0.370909 12.3273 0 11.0764 0 9.40364Z" fill="#6FB587"></path>
  </symbol>

  <symbol xmlns="http://www.w3.org/2000/svg" viewBox="0 0 14 13" id="twitter">
    <g clip-path="url(#clip0)">
      <path d="M13.4186 2.43827C12.9412 2.64767 12.4325 2.78648 11.9022 2.85387C12.4478 2.52813 12.8642 2.01625 13.0599 1.39926C12.5513 1.70254 11.9896 1.91676 11.3911 2.0363C10.9081 1.52201 10.2197 1.20349 9.46873 1.20349C8.01171 1.20349 6.83871 2.38612 6.83871 3.83592C6.83871 4.04452 6.85637 4.2451 6.89969 4.43605C4.71175 4.32935 2.77575 3.28071 1.47518 1.68328C1.24812 2.07722 1.11494 2.52813 1.11494 3.01353C1.11494 3.92497 1.5843 4.73291 2.28392 5.20067C1.8611 5.19265 1.4463 5.06989 1.09488 4.87653C1.09488 4.88455 1.09488 4.89498 1.09488 4.90541C1.09488 6.18432 2.00712 7.2466 3.20338 7.4913C2.98916 7.54987 2.75569 7.57796 2.51339 7.57796C2.3449 7.57796 2.17481 7.56833 2.01514 7.53303C2.35613 8.57524 3.32373 9.34146 4.47427 9.36633C3.57887 10.0668 2.44198 10.4888 1.21121 10.4888C0.99539 10.4888 0.78839 10.4792 0.58139 10.4527C1.74717 11.2045 3.12877 11.6337 4.61868 11.6337C9.46151 11.6337 12.1092 7.62208 12.1092 4.14481C12.1092 4.02847 12.1052 3.91615 12.0996 3.80463C12.6219 3.43395 13.0607 2.97101 13.4186 2.43827Z"></path>
    </g>
    <defs>
      <clipPath id="clip0">
        <rect width="12.8372" height="12.8372" fill="white" transform="translate(0.58139)"></rect>
      </clipPath>
    </defs>
  </symbol>

  <symbol xmlns="http://www.w3.org/2000/svg" viewBox="0 0 21 20" id="star">
    <path d="M15.9185 12.3201C15.6595 12.5711 15.5405 12.9341 15.5995 13.2901L16.4885 18.2101C16.5635 18.6271 16.3875 19.0491 16.0385 19.2901C15.6965 19.5401 15.2415 19.5701 14.8685 19.3701L10.4395 17.0601C10.2855 16.9781 10.1145 16.9341 9.93951 16.9291H9.66851C9.57451 16.9431 9.48251 16.9731 9.39851 17.0191L4.96851 19.3401C4.74951 19.4501 4.50151 19.4891 4.25851 19.4501C3.66651 19.3381 3.27151 18.7741 3.36851 18.1791L4.25851 13.2591C4.31751 12.9001 4.19851 12.5351 3.93951 12.2801L0.32851 8.78012C0.0265096 8.48712 -0.0784904 8.04712 0.0595096 7.65012C0.19351 7.25412 0.53551 6.96512 0.94851 6.90012L5.91851 6.17912C6.29651 6.14012 6.62851 5.91012 6.79851 5.57012L8.98851 1.08012C9.04051 0.980122 9.10751 0.888122 9.18851 0.810122L9.27851 0.740122C9.32551 0.688122 9.37951 0.645122 9.43951 0.610122L9.54851 0.570122L9.71851 0.500122H10.1395C10.5155 0.539122 10.8465 0.764122 11.0195 1.10012L13.2385 5.57012C13.3985 5.89712 13.7095 6.12412 14.0685 6.17912L19.0385 6.90012C19.4585 6.96012 19.8095 7.25012 19.9485 7.65012C20.0795 8.05112 19.9665 8.49112 19.6585 8.78012L15.9185 12.3201Z"></path>
  </symbol>

  <symbol xmlns="http://www.w3.org/2000/svg" viewBox="0 0 16 16" id="search">
    <circle cx="7.84442" cy="7.84442" r="5.99237" stroke-width="1.5" stroke-linecap="round" stroke-linejoin="round"></circle>
    <path d="M12.0122 12.3235L14.3616 14.6667" stroke-width="1.5" stroke-linecap="round" stroke-linejoin="round"></path>
  </symbol>

  <symbol xmlns="http://www.w3.org/2000/svg" viewBox="0 0 24 24" id="menu">
    <path d="M16 18V20H5V18H16ZM21 11V13H3V11H21ZM19 4V6H8V4H19Z"></path>
  </symbol>

  <symbol xmlns="http://www.w3.org/2000/svg" viewBox="0 0 24 24" id="login">
    <circle cx="11.579" cy="7.27803" r="4.77803" stroke-width="1.5" stroke-linecap="round" stroke-linejoin="round"></circle>
    <path d="M4.00002 18.7013C3.99873 18.3654 4.07385 18.0336 4.2197 17.7311C4.67736 16.8157 5.96798 16.3306 7.03892 16.1109C7.81128 15.9461 8.59431 15.836 9.38217 15.7814C10.8408 15.6533 12.3079 15.6533 13.7666 15.7814C14.5544 15.8366 15.3374 15.9467 16.1099 16.1109C17.1808 16.3306 18.4714 16.77 18.9291 17.7311C19.2224 18.3479 19.2224 19.0639 18.9291 19.6807C18.4714 20.6418 17.1808 21.0812 16.1099 21.2917C15.3384 21.4633 14.5551 21.5766 13.7666 21.6304C12.5794 21.731 11.3866 21.7494 10.1968 21.6853C9.92221 21.6853 9.65677 21.6853 9.38217 21.6304C8.59663 21.5772 7.81632 21.464 7.04807 21.2917C5.96798 21.0812 4.68652 20.6418 4.2197 19.6807C4.0746 19.3746 3.99955 19.04 4.00002 18.7013Z" stroke-width="1.5" stroke-linecap="round" stroke-linejoin="round"></path>
  </symbol>

  <symbol xmlns="http://www.w3.org/2000/svg" viewBox="0 0 13 13" id="instagram">
    <g clip-path="url(#clip0)">
      <path d="M12.9878 3.77417C12.9577 3.09208 12.8474 2.62315 12.6894 2.21681C12.5264 1.7855 12.2756 1.39935 11.9471 1.07833C11.6261 0.752326 11.2374 0.499003 10.8111 0.338547C10.4024 0.180539 9.93589 0.0702366 9.2538 0.0401632C8.56661 0.00754284 8.34846 0 6.60557 0C4.86269 0 4.64453 0.00754284 3.9599 0.0376163C3.27781 0.0676897 2.80888 0.17809 2.40264 0.336C1.97123 0.499004 1.58507 0.749779 1.26406 1.07833C0.938055 1.39935 0.684831 1.78805 0.524276 2.21436C0.366268 2.62315 0.255967 3.08953 0.225893 3.77162C0.193273 4.4588 0.18573 4.67696 0.18573 6.41985C0.18573 8.16273 0.193273 8.38089 0.223346 9.06552C0.25342 9.74761 0.363819 10.2165 0.521827 10.6229C0.684831 11.0542 0.938055 11.4403 1.26406 11.7614C1.58507 12.0874 1.97378 12.3407 2.40009 12.5011C2.80888 12.6592 3.27526 12.7695 3.95745 12.7995C4.64198 12.8297 4.86024 12.8371 6.60312 12.8371C8.34601 12.8371 8.56417 12.8297 9.2488 12.7995C9.93089 12.7695 10.3998 12.6592 10.8061 12.5011C11.6688 12.1676 12.3509 11.4855 12.6844 10.6229C12.8423 10.2141 12.9527 9.74761 12.9828 9.06552C13.0129 8.38089 13.0204 8.16273 13.0204 6.41985C13.0204 4.67696 13.0179 4.4588 12.9878 3.77417ZM11.8318 9.01537C11.8042 9.64231 11.6989 9.98085 11.6111 10.2066C11.3954 10.7658 10.9515 11.2097 10.3923 11.4254C10.1666 11.5131 9.82558 11.6184 9.20109 11.646C8.524 11.6761 8.32093 11.6836 6.60812 11.6836C4.89531 11.6836 4.68969 11.6761 4.01505 11.646C3.38811 11.6184 3.04956 11.5131 2.82386 11.4254C2.54556 11.3225 2.29224 11.1595 2.08662 10.9463C1.87347 10.7382 1.71046 10.4874 1.60761 10.2091C1.51983 9.9834 1.41453 9.64231 1.387 9.01792C1.35683 8.34082 1.34939 8.13766 1.34939 6.42484C1.34939 4.71203 1.35683 4.50641 1.387 3.83186C1.41453 3.20493 1.51983 2.86638 1.60761 2.64068C1.71046 2.36228 1.87347 2.10906 2.08917 1.90334C2.29724 1.69019 2.54801 1.52718 2.82641 1.42442C3.05211 1.33665 3.3932 1.23135 4.01759 1.20372C4.69469 1.17365 4.89785 1.1661 6.61057 1.1661C8.32593 1.1661 8.529 1.17365 9.20364 1.20372C9.83058 1.23135 10.1691 1.33665 10.3948 1.42442C10.6731 1.52718 10.9264 1.69019 11.1321 1.90334C11.3452 2.11151 11.5082 2.36228 11.6111 2.64068C11.6989 2.86638 11.8042 3.20738 11.8318 3.83186C11.8619 4.50896 11.8694 4.71203 11.8694 6.42484C11.8694 8.13766 11.8619 8.33828 11.8318 9.01537Z"></path>
      <path d="M6.60513 3.12207C4.78456 3.12207 3.30743 4.5991 3.30743 6.41976C3.30743 8.24043 4.78456 9.71746 6.60513 9.71746C8.42579 9.71746 9.90282 8.24043 9.90282 6.41976C9.90282 4.5991 8.42579 3.12207 6.60513 3.12207ZM6.60513 8.5589C5.42403 8.5589 4.466 7.60095 4.466 6.41976C4.466 5.23857 5.42403 4.28063 6.60513 4.28063C7.78632 4.28063 8.74426 5.23857 8.74426 6.41976C8.74426 7.60095 7.78632 8.5589 6.60513 8.5589Z"></path>
      <path d="M10.8032 2.99178C10.8032 3.41693 10.4584 3.76165 10.0332 3.76165C9.60805 3.76165 9.26334 3.41693 9.26334 2.99178C9.26334 2.56654 9.60805 2.22192 10.0332 2.22192C10.4584 2.22192 10.8032 2.56654 10.8032 2.99178Z"></path>
    </g>
    <defs>
      <clipPath id="clip0">
        <rect width="12.8372" height="12.8372" fill="white" transform="translate(0.162689)"></rect>
      </clipPath>
    </defs>
  </symbol>

  <symbol  xmlns="http://www.w3.org/2000/svg" viewBox="0 0 13 13" id="facebook">
    <g clip-path="url(#clip0)">
      <path d="M7.22091 4.41278V2.80813C7.22091 2.36525 7.58035 2.00581 8.02323 2.00581H8.82556V0H7.22091C5.89146 0 4.81394 1.07752 4.81394 2.40697V4.41278H3.20929V6.41859H4.81394V12.8372H7.22091V6.41859H8.82556L9.62788 4.41278H7.22091Z"></path>
    </g>
    <defs>
      <clipPath id="clip0">
        <rect width="12.8372" height="12.8372" fill="white"></rect>
      </clipPath>
    </defs>
  </symbol>

  <symbol fill="none" xmlns="http://www.w3.org/2000/svg" viewBox="0 0 17 15" id="down">
    <path d="M7.61459 9.40364C7.61459 7.44 7.00368 5.63636 5.78187 3.99273C4.5455 2.33454 2.97459 1.00363 1.06914 0L4.95911e-05 1.35273C0.974595 2.13818 1.83278 3.01091 2.57459 3.97091C3.30187 4.93091 3.6655 5.89091 3.6655 6.85091C3.6655 7.38909 3.56369 7.75273 3.36005 7.94182C3.14187 8.13091 2.8655 8.32 2.53096 8.50909C2.12369 8.75636 1.73823 9.11273 1.3746 9.57818C1.01096 10.0291 0.82914 10.6182 0.82914 11.3455C0.82914 12.2036 1.11277 12.9309 1.68005 13.5273C2.24732 14.1091 2.98187 14.4 3.88369 14.4C4.87278 14.4 5.7455 13.9855 6.50187 13.1564C7.24368 12.3273 7.61459 11.0764 7.61459 9.40364ZM16.8 9.40364C16.8 7.44 16.1891 5.63636 14.9673 3.99273C13.731 2.33454 12.16 1.00363 10.2546 0L9.1855 1.35273C10.16 2.13818 11.0182 3.01091 11.76 3.97091C12.4873 4.93091 12.851 5.89091 12.851 6.85091C12.851 7.38909 12.7491 7.75273 12.5455 7.94182C12.3273 8.13091 12.051 8.32 11.7164 8.50909C11.3091 8.75636 10.9237 9.11273 10.56 9.57818C10.1964 10.0291 10.0146 10.6182 10.0146 11.3455C10.0146 12.2036 10.2982 12.9309 10.8655 13.5273C11.4328 14.1091 12.1673 14.4 13.0691 14.4C14.0582 14.4 14.931 13.9855 15.6873 13.1564C16.4291 12.3273 16.8 11.0764 16.8 9.40364Z" fill="#6FB587"></path>
  </symbol>

  <symbol xmlns="http://www.w3.org/2000/svg" viewBox="0 0 20 21" id="cart">
    <path d="M5.42229 17.8203C5.84429 17.8203 6.18729 18.1633 6.18729 18.5853C6.18729 19.0073 5.84429 19.3493 5.42229 19.3493C5.00029 19.3493 4.65829 19.0073 4.65829 18.5853C4.65829 18.1633 5.00029 17.8203 5.42229 17.8203Z" stroke-width="1.5" stroke-linecap="round" stroke-linejoin="round"></path>
    <path d="M16.6747 17.8203C17.0967 17.8203 17.4397 18.1633 17.4397 18.5853C17.4397 19.0073 17.0967 19.3493 16.6747 19.3493C16.2527 19.3493 15.9097 19.0073 15.9097 18.5853C15.9097 18.1633 16.2527 17.8203 16.6747 17.8203Z" stroke-width="1.5" stroke-linecap="round" stroke-linejoin="round"></path>
    <path d="M0.749893 1.25L2.82989 1.61L3.79289 13.083C3.87089 14.018 4.65189 14.736 5.58989 14.736H16.5019C17.3979 14.736 18.1579 14.078 18.2869 13.19L19.2359 6.632C19.3529 5.823 18.7259 5.099 17.9089 5.099H3.16389" stroke-width="1.5" stroke-linecap="round" stroke-linejoin="round"></path>
    <path d="M12.1254 8.79492H14.8984" stroke-width="1.5" stroke-linecap="round" stroke-linejoin="round"></path>
  </symbol>

  <symbol xmlns="http://www.w3.org/2000/svg" viewBox="0 0 16 16" id="arrow">
    <path d="M12.172 7.00005L6.808 1.63605L8.222 0.222046L16 8.00005L8.222 15.778L6.808 14.364L12.172 9.00005H0V7.00005H12.172Z"></path>
  </symbol>
</svg>